<?xml version="1.0" encoding="utf-8"?>
<!-- Generator: Adobe Illustrator 25.2.1, SVG Export Plug-In . SVG Version: 6.00 Build 0)  -->
<svg version="1.1" id="Layer_1" xmlns="http://www.w3.org/2000/svg" xmlns:xlink="http://www.w3.org/1999/xlink" x="0px" y="0px"
	 viewBox="0 0 39.3 39.2" style="enable-background:new 0 0 39.3 39.2;" xml:space="preserve">
<style type="text/css">
	.st0{fill:#323B7A;}
	.st1{fill:url(#SVGID_1_);}
</style>
<g transform="translate(0 0)">
	<path class="st0" d="M27.7,6.9L27.7,6.9L27.7,6.9c-4.9,3.1-11.2,3.1-16.1,0l0,0c-0.2,0.2-0.5,0.3-0.7,0.5C10.5,7.7,10.1,8,9.8,8.3
		C9.6,8.4,9.5,8.5,9.3,8.7C9,9,8.7,9.3,8.4,9.6C8.3,9.7,8.2,9.9,8,10.1c1.1,0.8,2.2,1.5,3.5,2c0.2,0.1,0.3,0.2,0.5,0.2
		c4.8,2,10.2,2,15,0.1c-2.3,5.8-1.7,12.3,1.6,17.6c0.2,0.4,0.5,0.7,0.7,1c1.2-1,2.2-2.3,3.1-3.7c-2.9-4.8-2.9-10.8,0-15.6
		C31.2,9.9,29.6,8.2,27.7,6.9z"/>
	
		<linearGradient id="SVGID_1_" gradientUnits="userSpaceOnUse" x1="-208.5444" y1="430.1673" x2="-207.5444" y2="430.1673" gradientTransform="matrix(39.2261 0 0 -39.2271 8180.3911 16893.8281)">
		<stop  offset="0" style="stop-color:#4BBDCC"/>
		<stop  offset="1" style="stop-color:#1C81C6"/>
	</linearGradient>
	<path class="st1" d="M35.5,8.2c-0.5,0.4-0.9,0.8-1.3,1.2C34.6,9,35.1,8.5,35.5,8.2c-0.3-0.4-0.6-0.8-1-1.2
		c-0.7-0.8-1.4-1.5-2.1-2.1c-0.4-0.3-0.8-0.7-1.2-1c-0.6,0.8-1.3,1.5-2.1,2.1c0.8-0.6,1.5-1.3,2.1-2.1C24.3-1.3,14.9-1.3,8,3.8
		C7.6,4.1,7.1,4.5,6.7,4.9C6,5.5,5.3,6.2,4.7,6.9C4.3,7.4,4,7.8,3.6,8.3c-4.8,6.8-4.8,15.9,0,22.7c0.3,0.4,0.6,0.8,1,1.2
		C5.2,33,6,33.7,6.7,34.4c0.4,0.3,0.8,0.7,1.2,1c6.9,5.2,16.4,5.2,23.4,0c0.4-0.3,0.8-0.6,1.1-0.9c0.8-0.7,1.5-1.4,2.2-2.2
		c0.3-0.4,0.6-0.8,0.9-1.1C40.5,24.2,40.5,15,35.5,8.2L35.5,8.2z M27.7,6.9L27.7,6.9z M19.6,34.6c-2.9,0-5.7-0.8-8.2-2.4
		c5-3.2,11.4-3.2,16.4,0C25.4,33.8,22.5,34.6,19.6,34.6z M6.7,27.3c-2.8-4.7-2.8-10.6,0-15.4C9.5,16.7,9.5,22.6,6.7,27.3z
		 M33.7,24.8c0,0.1-0.1,0.2-0.1,0.3c0,0.1-0.1,0.1-0.1,0.2c-0.3,0.8-0.7,1.5-1.1,2.2l0-0.1c-0.8,1.4-1.9,2.6-3.1,3.7
		c-0.2-0.3-0.5-0.7-0.7-1c-0.7-1.1-1.2-2.2-1.7-3.4c-4.8-1.9-10.1-1.9-14.8,0.1c1.8-4.6,1.8-9.8-0.1-14.4c-0.2-0.1-0.4-0.2-0.5-0.2
		c-0.3-0.1-0.6-0.3-0.9-0.4c-0.9-0.5-1.7-1-2.6-1.6c0.1-0.2,0.3-0.3,0.4-0.5C8.7,9.3,9,9,9.3,8.7c0.2-0.1,0.3-0.3,0.5-0.4
		c0.4-0.3,0.7-0.6,1.1-0.9c0.2-0.2,0.5-0.3,0.7-0.5l0,0c4.9-3.1,11.2-3.1,16.1,0l0,0l0,0c1.9,1.3,3.5,2.9,4.7,4.9l0-0.1
		c0.4,0.7,0.8,1.4,1.1,2.2c0,0.1,0.1,0.1,0.1,0.2c0,0.1,0.1,0.2,0.1,0.3C35,17.8,35,21.4,33.7,24.8L33.7,24.8z"/>
</g>
</svg>
