<svg xmlns="http://www.w3.org/2000/svg" xmlns:xlink="http://www.w3.org/1999/xlink" width="165.072" height="39.226" viewBox="0 0 165.072 39.226">
  <defs>
    <linearGradient id="linear-gradient" x1="0.135" y1="0.88" x2="0.839" y2="0.141" gradientUnits="objectBoundingBox">
      <stop offset="0" stop-color="#4d37d9"/>
      <stop offset="1" stop-color="#49c4e9"/>
    </linearGradient>
  </defs>
  <g id="Groupe_8000" data-name="Groupe 8000" transform="translate(-59 -41.774)">
    <path id="Tracé_4082" data-name="Tracé 4082" d="M172.369,119.07l-.013.009h0a14.977,14.977,0,0,1-16.1,0h0c-.235.15-.461.312-.687.474-.377.27-.745.551-1.095.855q-.238.206-.467.422-.458.431-.881.9-.211.234-.411.476a19.656,19.656,0,0,0,3.46,2.029c.175.08.347.165.525.241a19.582,19.582,0,0,0,15,.086,19.545,19.545,0,0,0,1.625,17.607q.333.529.7,1.035a15.281,15.281,0,0,0,3.068-3.652,14.989,14.989,0,0,1,0-15.578A15.282,15.282,0,0,0,172.369,119.07Z" transform="translate(-85.692 -70.374)" fill="#49c4e9"/>
    <path id="Tracé_4083" data-name="Tracé 4083" d="M161.572,104.221a15.26,15.26,0,0,0-1.291,1.235,15.166,15.166,0,0,1,1.291-1.235q-.458-.635-.964-1.231a19.747,19.747,0,0,0-2.13-2.147q-.592-.512-1.221-.978a15.059,15.059,0,0,1-2.1,2.084,15.059,15.059,0,0,0,2.1-2.084,19.559,19.559,0,0,0-23.185,0c-.453.333-.89.687-1.313,1.057a19.807,19.807,0,0,0-2.038,2.068q-.545.641-1.034,1.329a19.546,19.546,0,0,0,0,22.705q.458.643.964,1.248a19.739,19.739,0,0,0,2.109,2.15c.4.348.806.683,1.231,1a19.568,19.568,0,0,0,23.35,0c.392-.291.77-.6,1.139-.919a19.744,19.744,0,0,0,2.2-2.229q.468-.557.894-1.149a19.548,19.548,0,0,0,0-22.9Zm-7.773-1.287h0ZM145.664,130.7a14.935,14.935,0,0,1-8.178-2.43,14.981,14.981,0,0,1,16.357,0A14.935,14.935,0,0,1,145.664,130.7Zm-12.905-7.337a14.991,14.991,0,0,1,0-15.386,14.991,14.991,0,0,1,0,15.386Zm27.015-2.516c-.034.092-.069.183-.1.273-.026.069-.054.137-.081.2a15.008,15.008,0,0,1-1.11,2.191l-.033-.056a15.281,15.281,0,0,1-3.068,3.652q-.365-.506-.7-1.035a19.535,19.535,0,0,1-1.7-3.4,19.565,19.565,0,0,0-14.845.086,19.541,19.541,0,0,0-.076-14.38c-.178-.075-.35-.16-.525-.241q-.459-.21-.906-.443a19.458,19.458,0,0,1-2.554-1.587q.2-.243.411-.476.422-.467.881-.9.229-.216.467-.422c.35-.3.718-.585,1.095-.855.226-.162.452-.325.687-.474h0a14.977,14.977,0,0,1,16.1,0h0l.013-.009a15.282,15.282,0,0,1,4.716,4.9l.033-.056a14.991,14.991,0,0,1,1.111,2.193c.026.066.053.132.078.2.036.093.073.185.107.279a15.011,15.011,0,0,1,0,10.352Z" transform="translate(-67.051 -54.285)" fill="url(#linear-gradient)"/>
    <g id="Groupe_7181" data-name="Groupe 7181" transform="translate(106 49.935)">
      <path id="Tracé_4084" data-name="Tracé 4084" d="M289.588,127.471c3.462,0,5.61,1.576,5.61,4.178a3.659,3.659,0,0,1-2.936,3.724,4.053,4.053,0,0,1,3.581,4.225c0,2.865-2.316,4.584-6.088,4.584h-7.425V127.471Zm-4.441,6.923h4.3c1.79,0,2.865-.836,2.865-2.244s-1.074-2.173-2.865-2.173h-4.3Zm0,7.281h4.3c2.2,0,3.51-.859,3.51-2.435,0-1.48-1.313-2.363-3.51-2.363h-4.3Z" transform="translate(-282.331 -126.182)" fill="#2c2c2c"/>
      <path id="Tracé_4085" data-name="Tracé 4085" d="M342.978,151.731a5.151,5.151,0,0,1-4.2,1.671c-2.746,0-4.465-1.7-4.465-3.939,0-2.315,1.743-3.8,4.8-3.82h3.844v-.382c0-1.6-1.027-2.555-3.032-2.555a6.694,6.694,0,0,0-3.748,1.29l-1.122-1.91a9.305,9.305,0,0,1,5.467-1.6c3.271,0,5.109,1.671,5.133,4.464l.024,8.332h-2.7Zm-.024-2.913v-1.17h-3.438c-1.79,0-2.626.478-2.626,1.7,0,1.146.931,1.886,2.459,1.886C341.307,151.23,342.811,150.2,342.954,148.819Z" transform="translate(-318.675 -135.282)" fill="#2c2c2c"/>
      <path id="Tracé_4086" data-name="Tracé 4086" d="M396.462,145.381v7.9h-2.746v-7.138a2.829,2.829,0,0,0-3.056-3.08,3.558,3.558,0,0,0-3.6,3.462v6.756H384.31v-12.7h2.746v2.435a4.8,4.8,0,0,1,4.679-2.531C394.7,140.487,396.462,142.349,396.462,145.381Z" transform="translate(-353.632 -135.282)" fill="#2c2c2c"/>
      <path id="Tracé_4087" data-name="Tracé 4087" d="M440.069,138.295v3.558h-2.745V124.138h2.745v10.7l5.61-5.682h3.151l-4.7,4.918,5.061,7.783h-3.247l-3.724-5.825Z" transform="translate(-390.698 -123.852)" fill="#2c2c2c"/>
      <path id="Tracé_4088" data-name="Tracé 4088" d="M490.561,147.983h-9.6a3.867,3.867,0,0,0,3.939,3.175,4.937,4.937,0,0,0,3.581-1.48l1.456,1.552a6.911,6.911,0,0,1-5.252,2.149,6.446,6.446,0,1,1-.072-12.892C489.081,140.487,490.895,143.4,490.561,147.983Zm-2.387-2.005a3.262,3.262,0,0,0-3.533-3.295,3.614,3.614,0,0,0-3.725,3.295Z" transform="translate(-419.273 -135.282)" fill="#2c2c2c"/>
      <path id="Tracé_4089" data-name="Tracé 4089" d="M531.573,143.113a4.617,4.617,0,0,1,4.393-2.626v2.626a3.847,3.847,0,0,0-4.393,3.533v6.637h-2.746v-12.7h2.746Z" transform="translate(-454.675 -135.282)" fill="#2c2c2c"/>
      <path id="Tracé_4090" data-name="Tracé 4090" d="M562.5,124.857a1.6,1.6,0,1,1-1.6-1.671A1.582,1.582,0,0,1,562.5,124.857Zm-2.96,16.33v-12.7h2.721v12.7Z" transform="translate(-475.982 -123.186)" fill="#2c2c2c"/>
      <path id="Tracé_4091" data-name="Tracé 4091" d="M587.319,141.7l-1,2.029a7.467,7.467,0,0,0-3.653-1.122c-1.075,0-1.862.358-1.862,1.265,0,2.34,6.756,1.075,6.733,5.682,0,2.6-2.316,3.772-4.87,3.772a7.855,7.855,0,0,1-5.109-1.767l.979-1.957a6.92,6.92,0,0,0,4.25,1.575c1.17,0,2.077-.406,2.077-1.361,0-2.6-6.685-1.146-6.66-5.73,0-2.578,2.244-3.677,4.679-3.677A8.025,8.025,0,0,1,587.319,141.7Z" transform="translate(-488.744 -135.226)" fill="#2c2c2c"/>
      <path id="Tracé_4092" data-name="Tracé 4092" d="M628.331,147.983h-9.6a3.867,3.867,0,0,0,3.939,3.175,4.937,4.937,0,0,0,3.581-1.48l1.456,1.552a6.911,6.911,0,0,1-5.252,2.149,6.446,6.446,0,1,1-.072-12.892C626.851,140.487,628.665,143.4,628.331,147.983Zm-2.388-2.005a3.262,3.262,0,0,0-3.533-3.295,3.613,3.613,0,0,0-3.724,3.295Z" transform="translate(-515.599 -135.282)" fill="#2c2c2c"/>
    </g>
    <circle id="Ellipse_851" data-name="Ellipse 851" cx="3.907" cy="3.907" r="3.907" transform="translate(215.758 43.526)" fill="none" stroke="#2c2c2c" stroke-miterlimit="10" stroke-width="1"/>
    <text id="R" transform="translate(218 49)" fill="#2c2c2c" font-size="5" font-family="Lato-Bold, Lato" font-weight="700"><tspan x="0" y="0">R</tspan></text>
    <path id="Tracé_6273" data-name="Tracé 6273" d="M3.35-.366l0,.6H.513V-4.314H3.347v.6H1.255v1.369H2.927v.577H1.255v1.4Zm3.436.6h-.65A.18.18,0,0,1,6.011.189.359.359,0,0,1,5.937.1L5.2-1.092a.717.717,0,0,1-.076.186L4.448.1A.593.593,0,0,1,4.37.189.155.155,0,0,1,4.258.23H3.653L4.766-1.43,3.7-2.989h.65a.216.216,0,0,1,.115.024.214.214,0,0,1,.065.071l.729,1.136a.728.728,0,0,1,.088-.2l.615-.925a.185.185,0,0,1,.161-.107h.622l-1.07,1.53ZM7.922-.578a.816.816,0,0,0,.311.257.92.92,0,0,0,.374.074.737.737,0,0,0,.62-.29A1.408,1.408,0,0,0,9.449-1.4a2.194,2.194,0,0,0-.05-.506.98.98,0,0,0-.145-.342.559.559,0,0,0-.23-.192.75.75,0,0,0-.306-.06.855.855,0,0,0-.446.112,1.267,1.267,0,0,0-.349.32ZM7.887-2.522A1.7,1.7,0,0,1,8.346-2.9a1.2,1.2,0,0,1,.6-.145,1.1,1.1,0,0,1,.492.109,1.059,1.059,0,0,1,.379.317,1.536,1.536,0,0,1,.245.516,2.6,2.6,0,0,1,.087.705,2.214,2.214,0,0,1-.1.664A1.623,1.623,0,0,1,9.774-.2,1.287,1.287,0,0,1,9.339.15a1.273,1.273,0,0,1-.577.128A1.139,1.139,0,0,1,8.28.186a1.246,1.246,0,0,1-.358-.252V1.3H7.243V-2.989h.41a.167.167,0,0,1,.177.129Zm5.03.779a1,1,0,0,0-.049-.317.742.742,0,0,0-.144-.256.655.655,0,0,0-.235-.17.8.8,0,0,0-.323-.062.785.785,0,0,0-.581.211,1.026,1.026,0,0,0-.268.593ZM11.3-1.326a1.616,1.616,0,0,0,.085.475.979.979,0,0,0,.194.333.755.755,0,0,0,.29.2,1.047,1.047,0,0,0,.377.065A1.149,1.149,0,0,0,12.589-.3a1.615,1.615,0,0,0,.252-.1q.107-.055.183-.1a.273.273,0,0,1,.139-.046.145.145,0,0,1,.126.063l.192.249A1.221,1.221,0,0,1,13.21,0a1.581,1.581,0,0,1-.322.159,1.818,1.818,0,0,1-.35.088,2.374,2.374,0,0,1-.35.027,1.683,1.683,0,0,1-.62-.112,1.379,1.379,0,0,1-.5-.33,1.522,1.522,0,0,1-.328-.54,2.142,2.142,0,0,1-.118-.742,1.812,1.812,0,0,1,.106-.625,1.49,1.49,0,0,1,.3-.5,1.422,1.422,0,0,1,.48-.339,1.567,1.567,0,0,1,.639-.125,1.529,1.529,0,0,1,.549.1,1.2,1.2,0,0,1,.435.282,1.3,1.3,0,0,1,.286.456,1.718,1.718,0,0,1,.1.614.433.433,0,0,1-.035.211.139.139,0,0,1-.126.054Zm3.5-1.067a1.423,1.423,0,0,1,.366-.481.788.788,0,0,1,.514-.175.779.779,0,0,1,.2.024.55.55,0,0,1,.164.071l-.047.511a.127.127,0,0,1-.039.074.114.114,0,0,1-.071.021.761.761,0,0,1-.136-.017.964.964,0,0,0-.186-.017.709.709,0,0,0-.251.041.606.606,0,0,0-.2.12.807.807,0,0,0-.153.192,1.857,1.857,0,0,0-.123.259v2h-.678V-2.989h.394a.214.214,0,0,1,.148.039.242.242,0,0,1,.057.137Zm2.395-.6V.23h-.678V-2.989Zm.114-.972a.424.424,0,0,1-.036.174.456.456,0,0,1-.1.144.484.484,0,0,1-.147.1.443.443,0,0,1-.178.036.413.413,0,0,1-.172-.036.455.455,0,0,1-.14-.1.484.484,0,0,1-.1-.144A.424.424,0,0,1,16.4-3.96a.432.432,0,0,1,.036-.177.484.484,0,0,1,.1-.144.455.455,0,0,1,.14-.1.413.413,0,0,1,.172-.036.443.443,0,0,1,.178.036.484.484,0,0,1,.147.1.456.456,0,0,1,.1.144A.432.432,0,0,1,17.306-3.96Zm2.852,2.218a1,1,0,0,0-.049-.317.742.742,0,0,0-.144-.256.655.655,0,0,0-.235-.17.8.8,0,0,0-.323-.062.785.785,0,0,0-.581.211,1.026,1.026,0,0,0-.268.593Zm-1.619.417a1.617,1.617,0,0,0,.085.475.979.979,0,0,0,.194.333.755.755,0,0,0,.29.2,1.047,1.047,0,0,0,.377.065A1.149,1.149,0,0,0,19.83-.3a1.615,1.615,0,0,0,.252-.1q.107-.055.183-.1A.273.273,0,0,1,20.4-.549a.145.145,0,0,1,.126.063l.192.249a1.221,1.221,0,0,1-.271.24,1.581,1.581,0,0,1-.322.159,1.818,1.818,0,0,1-.35.088,2.374,2.374,0,0,1-.35.027,1.683,1.683,0,0,1-.62-.112,1.379,1.379,0,0,1-.5-.33,1.522,1.522,0,0,1-.328-.54,2.142,2.142,0,0,1-.118-.742,1.812,1.812,0,0,1,.106-.625,1.49,1.49,0,0,1,.3-.5,1.422,1.422,0,0,1,.48-.339,1.567,1.567,0,0,1,.639-.125,1.529,1.529,0,0,1,.549.1,1.2,1.2,0,0,1,.435.282,1.3,1.3,0,0,1,.286.456,1.718,1.718,0,0,1,.1.614.433.433,0,0,1-.035.211.139.139,0,0,1-.126.054Zm3.493-1.237a2.057,2.057,0,0,1,.216-.194,1.439,1.439,0,0,1,.238-.15,1.274,1.274,0,0,1,.268-.1,1.3,1.3,0,0,1,.309-.035,1.145,1.145,0,0,1,.465.088.931.931,0,0,1,.338.249,1.074,1.074,0,0,1,.207.387,1.684,1.684,0,0,1,.069.5V.23h-.675V-1.818a.767.767,0,0,0-.15-.5.56.56,0,0,0-.456-.18.877.877,0,0,0-.421.1,1.445,1.445,0,0,0-.364.284V.23H21.4V-2.989h.41a.167.167,0,0,1,.177.129Zm5.181.205a.351.351,0,0,1-.06.063.131.131,0,0,1-.082.022.207.207,0,0,1-.112-.038q-.058-.038-.139-.084a1.1,1.1,0,0,0-.194-.084.91.91,0,0,0-.284-.038.89.89,0,0,0-.387.079.751.751,0,0,0-.278.226,1,1,0,0,0-.167.357,1.856,1.856,0,0,0-.055.472,1.773,1.773,0,0,0,.06.483,1.043,1.043,0,0,0,.172.357.742.742,0,0,0,.271.221.824.824,0,0,0,.358.076.9.9,0,0,0,.319-.047.978.978,0,0,0,.205-.1q.082-.057.14-.1a.2.2,0,0,1,.125-.047.145.145,0,0,1,.126.063l.192.249a1.262,1.262,0,0,1-.259.24,1.466,1.466,0,0,1-.3.159,1.574,1.574,0,0,1-.328.088,2.209,2.209,0,0,1-.344.027,1.4,1.4,0,0,1-.56-.112A1.308,1.308,0,0,1,25.18-.16a1.55,1.55,0,0,1-.306-.521,2.044,2.044,0,0,1-.112-.7,2.088,2.088,0,0,1,.1-.661,1.5,1.5,0,0,1,.3-.525,1.341,1.341,0,0,1,.481-.346,1.651,1.651,0,0,1,.663-.125,1.563,1.563,0,0,1,.617.114,1.5,1.5,0,0,1,.475.322Zm2.808.615a1,1,0,0,0-.049-.317.742.742,0,0,0-.144-.256.655.655,0,0,0-.235-.17.8.8,0,0,0-.323-.062.785.785,0,0,0-.581.211,1.026,1.026,0,0,0-.268.593ZM28.4-1.326a1.617,1.617,0,0,0,.085.475.979.979,0,0,0,.194.333.755.755,0,0,0,.29.2,1.047,1.047,0,0,0,.377.065A1.149,1.149,0,0,0,29.694-.3a1.615,1.615,0,0,0,.252-.1q.107-.055.183-.1a.273.273,0,0,1,.139-.046.145.145,0,0,1,.126.063l.192.249a1.221,1.221,0,0,1-.271.24,1.581,1.581,0,0,1-.322.159,1.818,1.818,0,0,1-.35.088,2.374,2.374,0,0,1-.35.027,1.683,1.683,0,0,1-.62-.112,1.379,1.379,0,0,1-.5-.33A1.522,1.522,0,0,1,27.85-.7a2.142,2.142,0,0,1-.118-.742,1.812,1.812,0,0,1,.106-.625,1.49,1.49,0,0,1,.3-.5,1.422,1.422,0,0,1,.48-.339,1.567,1.567,0,0,1,.639-.125,1.529,1.529,0,0,1,.549.1,1.2,1.2,0,0,1,.435.282,1.3,1.3,0,0,1,.286.456,1.718,1.718,0,0,1,.1.614.433.433,0,0,1-.035.211.139.139,0,0,1-.126.054Zm6.21.972a1.321,1.321,0,0,0,.421-.058.771.771,0,0,0,.281-.159.592.592,0,0,0,.158-.238.873.873,0,0,0,.049-.3.627.627,0,0,0-.219-.506A1.065,1.065,0,0,0,34.61-1.8H33.7V-.354ZM33.7-3.736v1.42h.738a1.136,1.136,0,0,0,.707-.183.63.63,0,0,0,.234-.527.639.639,0,0,0-.219-.543,1.134,1.134,0,0,0-.686-.167Zm.773-.577a2.884,2.884,0,0,1,.745.084,1.425,1.425,0,0,1,.508.238.924.924,0,0,1,.292.377,1.284,1.284,0,0,1,.093.5,1,1,0,0,1-.049.311.913.913,0,0,1-.151.281,1.111,1.111,0,0,1-.257.235,1.477,1.477,0,0,1-.366.174q.966.205.966,1.026a1.278,1.278,0,0,1-.109.532,1.172,1.172,0,0,1-.316.417,1.483,1.483,0,0,1-.51.273,2.247,2.247,0,0,1-.691.1H32.96V-4.314Zm4.153,3.136a4.291,4.291,0,0,0-.612.058,1.738,1.738,0,0,0-.4.117.533.533,0,0,0-.222.169.369.369,0,0,0-.068.215.47.47,0,0,0,.036.194.354.354,0,0,0,.1.133.411.411,0,0,0,.151.076.724.724,0,0,0,.191.024.976.976,0,0,0,.456-.1,1.427,1.427,0,0,0,.371-.289Zm-1.8-1.363a1.843,1.843,0,0,1,1.3-.508,1.276,1.276,0,0,1,.494.09.988.988,0,0,1,.363.254,1.123,1.123,0,0,1,.224.39,1.535,1.535,0,0,1,.077.5V.23h-.3A.3.3,0,0,1,38.832.2a.23.23,0,0,1-.085-.121l-.066-.262a2.988,2.988,0,0,1-.243.2,1.533,1.533,0,0,1-.248.147,1.218,1.218,0,0,1-.275.09,1.619,1.619,0,0,1-.323.03,1.2,1.2,0,0,1-.364-.054.8.8,0,0,1-.292-.163.769.769,0,0,1-.194-.27.932.932,0,0,1-.071-.379.731.731,0,0,1,.1-.363.907.907,0,0,1,.328-.317,2.127,2.127,0,0,1,.6-.232,4.378,4.378,0,0,1,.923-.1v-.215a.771.771,0,0,0-.148-.517.546.546,0,0,0-.435-.17.955.955,0,0,0-.328.049,1.482,1.482,0,0,0-.23.106q-.1.057-.174.106a.292.292,0,0,1-.161.049.193.193,0,0,1-.118-.036.3.3,0,0,1-.08-.09Zm3.884-.022a2.057,2.057,0,0,1,.216-.194,1.439,1.439,0,0,1,.238-.15,1.274,1.274,0,0,1,.268-.1,1.3,1.3,0,0,1,.309-.035,1.145,1.145,0,0,1,.465.088.93.93,0,0,1,.338.249,1.074,1.074,0,0,1,.207.387,1.684,1.684,0,0,1,.069.5V.23h-.675V-1.818a.767.767,0,0,0-.15-.5.56.56,0,0,0-.456-.18.877.877,0,0,0-.421.1,1.445,1.445,0,0,0-.364.284V.23h-.678V-2.989h.41a.167.167,0,0,1,.177.129ZM44.294-4.44v2.707h.145a.291.291,0,0,0,.114-.019.252.252,0,0,0,.092-.079l.9-1.032a.336.336,0,0,1,.1-.095.3.3,0,0,1,.145-.032h.615L45.326-1.764a.826.826,0,0,1-.208.2.59.59,0,0,1,.11.1,1.092,1.092,0,0,1,.092.125L46.478.23h-.606A.334.334,0,0,1,45.732.2a.243.243,0,0,1-.1-.1L44.7-1.158a.238.238,0,0,0-.095-.093.375.375,0,0,0-.142-.021h-.167V.23h-.678V-4.44Zm3.323,1.451V.23h-.678V-2.989Zm.114-.972a.424.424,0,0,1-.036.174.456.456,0,0,1-.1.144.484.484,0,0,1-.147.1.443.443,0,0,1-.178.036.413.413,0,0,1-.172-.036.455.455,0,0,1-.14-.1.484.484,0,0,1-.1-.144.424.424,0,0,1-.036-.174.432.432,0,0,1,.036-.177.484.484,0,0,1,.1-.144.455.455,0,0,1,.14-.1.413.413,0,0,1,.172-.036.443.443,0,0,1,.178.036.484.484,0,0,1,.147.1.456.456,0,0,1,.1.144A.432.432,0,0,1,47.73-3.96Zm1.376,1.4a2.058,2.058,0,0,1,.216-.194,1.439,1.439,0,0,1,.238-.15,1.274,1.274,0,0,1,.268-.1,1.3,1.3,0,0,1,.309-.035,1.145,1.145,0,0,1,.465.088.931.931,0,0,1,.338.249,1.074,1.074,0,0,1,.207.387,1.684,1.684,0,0,1,.069.5V.23h-.675V-1.818a.767.767,0,0,0-.15-.5.56.56,0,0,0-.456-.18.877.877,0,0,0-.421.1,1.445,1.445,0,0,0-.364.284V.23h-.678V-2.989h.41a.167.167,0,0,1,.177.129Zm4.055,1.155a.635.635,0,0,0,.473-.161.574.574,0,0,0,.158-.42.561.561,0,0,0-.158-.42.651.651,0,0,0-.473-.155.652.652,0,0,0-.472.155.558.558,0,0,0-.159.42.648.648,0,0,0,.041.233.51.51,0,0,0,.12.185.537.537,0,0,0,.2.12A.8.8,0,0,0,53.161-1.408ZM54.1.388a.239.239,0,0,0-.062-.172.41.41,0,0,0-.166-.1,1.191,1.191,0,0,0-.243-.054q-.139-.017-.3-.025L53.021.02q-.163-.008-.314-.03a.835.835,0,0,0-.248.189.377.377,0,0,0-.1.256.339.339,0,0,0,.049.177.413.413,0,0,0,.151.142.9.9,0,0,0,.262.095,1.827,1.827,0,0,0,.383.035A1.3,1.3,0,0,0,53.88.744.41.41,0,0,0,54.1.388Zm.682-3.26v.252q0,.126-.151.155l-.322.054A.984.984,0,0,1,54.395-2a.973.973,0,0,1-.093.429.967.967,0,0,1-.257.328,1.16,1.16,0,0,1-.391.208,1.609,1.609,0,0,1-.492.073,1.729,1.729,0,0,1-.2-.011q-.1-.011-.188-.03a.445.445,0,0,0-.136.114A.205.205,0,0,0,52.6-.77a.165.165,0,0,0,.092.155.721.721,0,0,0,.241.073,3.058,3.058,0,0,0,.342.028q.192.006.391.022a3.684,3.684,0,0,1,.391.052,1.126,1.126,0,0,1,.342.12.672.672,0,0,1,.241.226.671.671,0,0,1,.092.369.868.868,0,0,1-.1.407,1.1,1.1,0,0,1-.3.353,1.56,1.56,0,0,1-.481.248,2.074,2.074,0,0,1-.647.093,2.5,2.5,0,0,1-.626-.069,1.472,1.472,0,0,1-.445-.188.805.805,0,0,1-.265-.273.649.649,0,0,1-.087-.322.563.563,0,0,1,.144-.388.957.957,0,0,1,.39-.252.551.551,0,0,1-.213-.174.482.482,0,0,1-.08-.29.534.534,0,0,1,.1-.3.815.815,0,0,1,.312-.262,1.026,1.026,0,0,1-.379-.352A.938.938,0,0,1,51.911-2,.98.98,0,0,1,52-2.436a.951.951,0,0,1,.26-.328,1.194,1.194,0,0,1,.4-.208,1.647,1.647,0,0,1,.5-.073,1.459,1.459,0,0,1,.726.174ZM57.572-.578a.816.816,0,0,0,.311.257.9.9,0,0,0,.368.074.744.744,0,0,0,.625-.29,1.469,1.469,0,0,0,.224-.9,1.349,1.349,0,0,0-.194-.811.654.654,0,0,0-.554-.256.82.82,0,0,0-.434.112,1.288,1.288,0,0,0-.346.32Zm0-1.985a1.624,1.624,0,0,1,.445-.347,1.189,1.189,0,0,1,.562-.129,1.15,1.15,0,0,1,.506.109,1.06,1.06,0,0,1,.383.314,1.491,1.491,0,0,1,.243.5,2.347,2.347,0,0,1,.085.658,2.467,2.467,0,0,1-.1.712,1.643,1.643,0,0,1-.276.549,1.239,1.239,0,0,1-.435.353,1.286,1.286,0,0,1-.571.125,1.217,1.217,0,0,1-.281-.03A.981.981,0,0,1,57.9.161a1.025,1.025,0,0,1-.2-.136,1.478,1.478,0,0,1-.172-.18l-.028.249a.172.172,0,0,1-.057.1.182.182,0,0,1-.114.032h-.442V-4.44h.678Zm4.992.82a1,1,0,0,0-.049-.317.742.742,0,0,0-.144-.256.655.655,0,0,0-.235-.17.8.8,0,0,0-.323-.062.785.785,0,0,0-.581.211,1.026,1.026,0,0,0-.268.593Zm-1.619.417a1.617,1.617,0,0,0,.085.475.979.979,0,0,0,.194.333.755.755,0,0,0,.29.2,1.047,1.047,0,0,0,.377.065A1.149,1.149,0,0,0,62.236-.3a1.615,1.615,0,0,0,.252-.1q.107-.055.183-.1a.273.273,0,0,1,.139-.046.145.145,0,0,1,.126.063l.192.249a1.221,1.221,0,0,1-.271.24,1.581,1.581,0,0,1-.322.159,1.818,1.818,0,0,1-.35.088,2.374,2.374,0,0,1-.35.027,1.683,1.683,0,0,1-.62-.112,1.379,1.379,0,0,1-.5-.33,1.522,1.522,0,0,1-.328-.54,2.142,2.142,0,0,1-.118-.742,1.812,1.812,0,0,1,.106-.625,1.49,1.49,0,0,1,.3-.5,1.422,1.422,0,0,1,.48-.339,1.567,1.567,0,0,1,.639-.125,1.529,1.529,0,0,1,.549.1,1.2,1.2,0,0,1,.435.282,1.3,1.3,0,0,1,.286.456,1.718,1.718,0,0,1,.1.614.433.433,0,0,1-.035.211.139.139,0,0,1-.126.054Zm5.626-1.663L64.8,1.145a.333.333,0,0,1-.084.114.23.23,0,0,1-.15.041h-.5L64.656.012l-1.313-3h.59a.2.2,0,0,1,.131.039.245.245,0,0,1,.068.093L64.9-1.029q.028.079.052.156T65-.713q.025-.082.05-.161t.057-.158l.735-1.824a.209.209,0,0,1,.074-.095.191.191,0,0,1,.115-.038Zm1.735-.05a1.707,1.707,0,0,1,.645.117,1.383,1.383,0,0,1,.492.331,1.471,1.471,0,0,1,.314.521,2.017,2.017,0,0,1,.11.688,2.017,2.017,0,0,1-.11.688,1.487,1.487,0,0,1-.314.522,1.374,1.374,0,0,1-.492.333,1.707,1.707,0,0,1-.645.117,1.716,1.716,0,0,1-.648-.117,1.389,1.389,0,0,1-.494-.333,1.475,1.475,0,0,1-.316-.522,2.017,2.017,0,0,1-.11-.688,2.017,2.017,0,0,1,.11-.688,1.459,1.459,0,0,1,.316-.521,1.4,1.4,0,0,1,.494-.331A1.716,1.716,0,0,1,68.307-3.039Zm0,2.786a.75.75,0,0,0,.648-.292,1.4,1.4,0,0,0,.213-.835,1.415,1.415,0,0,0-.213-.838.747.747,0,0,0-.648-.3.758.758,0,0,0-.656.3,1.407,1.407,0,0,0-.215.838,1.392,1.392,0,0,0,.215.835A.761.761,0,0,0,68.307-.253Zm2.846-2.31a2.058,2.058,0,0,1,.216-.194,1.439,1.439,0,0,1,.238-.15,1.274,1.274,0,0,1,.268-.1,1.3,1.3,0,0,1,.309-.035,1.145,1.145,0,0,1,.465.088.931.931,0,0,1,.338.249,1.074,1.074,0,0,1,.207.387,1.684,1.684,0,0,1,.069.5V.23h-.675V-1.818a.767.767,0,0,0-.15-.5.56.56,0,0,0-.456-.18.877.877,0,0,0-.421.1,1.445,1.445,0,0,0-.364.284V.23h-.678V-2.989h.41a.167.167,0,0,1,.177.129Zm4.96.366a.8.8,0,0,0-.312-.256.932.932,0,0,0-.369-.073.74.74,0,0,0-.622.292,1.4,1.4,0,0,0-.224.863,2.194,2.194,0,0,0,.05.506.98.98,0,0,0,.145.342.559.559,0,0,0,.23.192.75.75,0,0,0,.306.06.855.855,0,0,0,.446-.112A1.286,1.286,0,0,0,76.113-.7Zm.678-2.243V.23h-.41A.165.165,0,0,1,76.208.1l-.06-.35a1.7,1.7,0,0,1-.459.382,1.2,1.2,0,0,1-.6.145A1.1,1.1,0,0,1,74.6.168a1.059,1.059,0,0,1-.379-.317,1.536,1.536,0,0,1-.245-.516,2.6,2.6,0,0,1-.087-.705,2.21,2.21,0,0,1,.1-.666,1.625,1.625,0,0,1,.276-.532,1.282,1.282,0,0,1,.437-.353,1.276,1.276,0,0,1,.576-.128,1.167,1.167,0,0,1,.483.09,1.174,1.174,0,0,1,.357.251V-4.44Zm5.462.742H80.837V.23H80.1V-3.7h-1.42v-.615h3.572Zm.483,1.306a1.423,1.423,0,0,1,.366-.481.788.788,0,0,1,.514-.175.779.779,0,0,1,.2.024.55.55,0,0,1,.164.071l-.047.511a.127.127,0,0,1-.039.074.114.114,0,0,1-.071.021.762.762,0,0,1-.136-.017.964.964,0,0,0-.186-.017.709.709,0,0,0-.251.041.606.606,0,0,0-.2.12.807.807,0,0,0-.153.192,1.858,1.858,0,0,0-.123.259v2H82.1V-2.989h.394a.214.214,0,0,1,.148.039.242.242,0,0,1,.057.137ZM86.1-1.177a4.291,4.291,0,0,0-.612.058,1.738,1.738,0,0,0-.4.117.533.533,0,0,0-.222.169.369.369,0,0,0-.068.215.47.47,0,0,0,.036.194.354.354,0,0,0,.1.133.411.411,0,0,0,.151.076.724.724,0,0,0,.191.024.976.976,0,0,0,.456-.1A1.426,1.426,0,0,0,86.1-.581ZM84.3-2.54a1.843,1.843,0,0,1,1.3-.508,1.276,1.276,0,0,1,.494.09.988.988,0,0,1,.363.254,1.123,1.123,0,0,1,.224.39,1.535,1.535,0,0,1,.077.5V.23h-.3A.3.3,0,0,1,86.305.2.23.23,0,0,1,86.22.079l-.066-.262a2.988,2.988,0,0,1-.243.2,1.532,1.532,0,0,1-.248.147,1.218,1.218,0,0,1-.275.09,1.619,1.619,0,0,1-.323.03A1.2,1.2,0,0,1,84.7.227a.8.8,0,0,1-.292-.163.769.769,0,0,1-.194-.27.932.932,0,0,1-.071-.379.731.731,0,0,1,.1-.363.907.907,0,0,1,.328-.317,2.127,2.127,0,0,1,.6-.232,4.378,4.378,0,0,1,.923-.1v-.215a.771.771,0,0,0-.148-.517.546.546,0,0,0-.435-.17.955.955,0,0,0-.328.049,1.482,1.482,0,0,0-.23.106q-.1.057-.174.106a.292.292,0,0,1-.161.049A.193.193,0,0,1,84.5-2.23a.3.3,0,0,1-.08-.09Zm3.884-.022a2.057,2.057,0,0,1,.216-.194,1.439,1.439,0,0,1,.238-.15,1.274,1.274,0,0,1,.268-.1,1.3,1.3,0,0,1,.309-.035,1.145,1.145,0,0,1,.465.088.93.93,0,0,1,.338.249,1.074,1.074,0,0,1,.207.387,1.684,1.684,0,0,1,.069.5V.23h-.675V-1.818a.767.767,0,0,0-.15-.5.56.56,0,0,0-.456-.18.877.877,0,0,0-.421.1,1.445,1.445,0,0,0-.364.284V.23h-.678V-2.989h.41a.167.167,0,0,1,.177.129Zm4.828.158a.169.169,0,0,1-.057.063.151.151,0,0,1-.079.019.254.254,0,0,1-.117-.033q-.063-.033-.148-.074a1.279,1.279,0,0,0-.2-.074.981.981,0,0,0-.27-.033.814.814,0,0,0-.229.03.515.515,0,0,0-.174.085.385.385,0,0,0-.109.129.345.345,0,0,0-.038.159.27.27,0,0,0,.069.189.6.6,0,0,0,.183.131,1.775,1.775,0,0,0,.259.1q.145.044.3.095a2.992,2.992,0,0,1,.3.117,1.112,1.112,0,0,1,.259.163.74.74,0,0,1,.183.233.731.731,0,0,1,.069.333,1.059,1.059,0,0,1-.082.42.942.942,0,0,1-.24.334A1.1,1.1,0,0,1,92.491.2a1.689,1.689,0,0,1-.538.079,1.713,1.713,0,0,1-.323-.03,1.86,1.86,0,0,1-.3-.082,1.581,1.581,0,0,1-.262-.125,1.379,1.379,0,0,1-.216-.158l.158-.259a.219.219,0,0,1,.071-.074.2.2,0,0,1,.106-.027.236.236,0,0,1,.131.043q.065.043.151.093a1.2,1.2,0,0,0,.21.093.946.946,0,0,0,.306.043.842.842,0,0,0,.262-.036.525.525,0,0,0,.183-.1.4.4,0,0,0,.107-.144.43.43,0,0,0,.035-.172.294.294,0,0,0-.069-.2.588.588,0,0,0-.185-.136,1.7,1.7,0,0,0-.262-.1q-.147-.044-.3-.095a3.126,3.126,0,0,1-.3-.117,1.026,1.026,0,0,1-.262-.169.771.771,0,0,1-.185-.249.833.833,0,0,1-.069-.358.89.89,0,0,1,.077-.366.888.888,0,0,1,.227-.306,1.1,1.1,0,0,1,.369-.21,1.521,1.521,0,0,1,.506-.077,1.6,1.6,0,0,1,.59.1,1.283,1.283,0,0,1,.445.284Zm2.553,1.227a4.291,4.291,0,0,0-.612.058,1.738,1.738,0,0,0-.4.117.533.533,0,0,0-.222.169.369.369,0,0,0-.068.215.47.47,0,0,0,.036.194.354.354,0,0,0,.1.133.411.411,0,0,0,.151.076.724.724,0,0,0,.191.024.976.976,0,0,0,.456-.1,1.427,1.427,0,0,0,.371-.289Zm-1.8-1.363a1.843,1.843,0,0,1,1.3-.508,1.276,1.276,0,0,1,.494.09.988.988,0,0,1,.363.254,1.123,1.123,0,0,1,.224.39,1.535,1.535,0,0,1,.077.5V.23h-.3A.3.3,0,0,1,95.772.2a.23.23,0,0,1-.085-.121L95.62-.183a2.99,2.99,0,0,1-.243.2,1.532,1.532,0,0,1-.248.147,1.217,1.217,0,0,1-.275.09,1.619,1.619,0,0,1-.323.03,1.2,1.2,0,0,1-.364-.054.8.8,0,0,1-.292-.163.769.769,0,0,1-.194-.27.932.932,0,0,1-.071-.379.732.732,0,0,1,.1-.363.907.907,0,0,1,.328-.317,2.127,2.127,0,0,1,.6-.232,4.378,4.378,0,0,1,.923-.1v-.215a.771.771,0,0,0-.148-.517.546.546,0,0,0-.435-.17.955.955,0,0,0-.328.049,1.482,1.482,0,0,0-.23.106q-.1.057-.174.106a.292.292,0,0,1-.161.049.193.193,0,0,1-.118-.036.3.3,0,0,1-.08-.09Zm5.525.183a.351.351,0,0,1-.06.063.131.131,0,0,1-.082.022.207.207,0,0,1-.112-.038q-.058-.038-.139-.084a1.1,1.1,0,0,0-.194-.084.91.91,0,0,0-.284-.038.89.89,0,0,0-.387.079.751.751,0,0,0-.278.226,1,1,0,0,0-.167.357,1.856,1.856,0,0,0-.055.472,1.773,1.773,0,0,0,.06.483,1.043,1.043,0,0,0,.172.357.742.742,0,0,0,.271.221.824.824,0,0,0,.358.076.9.9,0,0,0,.319-.047.978.978,0,0,0,.205-.1q.082-.057.14-.1a.2.2,0,0,1,.125-.047.145.145,0,0,1,.126.063l.192.249a1.261,1.261,0,0,1-.259.24,1.466,1.466,0,0,1-.3.159,1.574,1.574,0,0,1-.328.088,2.209,2.209,0,0,1-.344.027,1.4,1.4,0,0,1-.56-.112,1.308,1.308,0,0,1-.454-.325A1.55,1.55,0,0,1,96.95-.68a2.044,2.044,0,0,1-.112-.7,2.089,2.089,0,0,1,.1-.661,1.5,1.5,0,0,1,.3-.525,1.341,1.341,0,0,1,.481-.346,1.651,1.651,0,0,1,.663-.125,1.563,1.563,0,0,1,.617.114,1.5,1.5,0,0,1,.475.322ZM103.168.23h-.678V-2.455h-1.568V-.628a.375.375,0,0,0,.085.265.3.3,0,0,0,.227.092.4.4,0,0,0,.136-.021.614.614,0,0,0,.1-.044q.041-.024.071-.044A.1.1,0,0,1,101.6-.4a.1.1,0,0,1,.092.063l.2.331a1.1,1.1,0,0,1-.372.213,1.343,1.343,0,0,1-.442.074.814.814,0,0,1-.617-.226.882.882,0,0,1-.216-.636V-2.455h-.353a.143.143,0,0,1-.1-.036A.138.138,0,0,1,99.75-2.6v-.275l.521-.076.148-.931a.18.18,0,0,1,.054-.087.148.148,0,0,1,.1-.033h.347v1.057h2.247Zm.139-4.206a.413.413,0,0,1-.036.172.462.462,0,0,1-.1.142.484.484,0,0,1-.147.1.435.435,0,0,1-.175.036.413.413,0,0,1-.172-.036.475.475,0,0,1-.142-.1.476.476,0,0,1-.1-.142.413.413,0,0,1-.036-.172.443.443,0,0,1,.036-.178.465.465,0,0,1,.1-.145.475.475,0,0,1,.142-.1.413.413,0,0,1,.172-.036.435.435,0,0,1,.175.036.484.484,0,0,1,.147.1.451.451,0,0,1,.1.145A.443.443,0,0,1,103.307-3.976Zm2.108.937a1.707,1.707,0,0,1,.645.117,1.384,1.384,0,0,1,.492.331,1.471,1.471,0,0,1,.314.521,2.017,2.017,0,0,1,.11.688,2.017,2.017,0,0,1-.11.688,1.487,1.487,0,0,1-.314.522,1.373,1.373,0,0,1-.492.333,1.707,1.707,0,0,1-.645.117,1.716,1.716,0,0,1-.648-.117,1.389,1.389,0,0,1-.494-.333,1.475,1.475,0,0,1-.316-.522,2.017,2.017,0,0,1-.11-.688,2.017,2.017,0,0,1,.11-.688,1.459,1.459,0,0,1,.316-.521,1.4,1.4,0,0,1,.494-.331A1.716,1.716,0,0,1,105.414-3.039Zm0,2.786a.75.75,0,0,0,.648-.292,1.4,1.4,0,0,0,.213-.835,1.415,1.415,0,0,0-.213-.838.747.747,0,0,0-.648-.3.758.758,0,0,0-.656.3,1.407,1.407,0,0,0-.215.838,1.392,1.392,0,0,0,.215.835A.761.761,0,0,0,105.414-.253Zm2.846-2.31a2.057,2.057,0,0,1,.216-.194,1.439,1.439,0,0,1,.238-.15,1.274,1.274,0,0,1,.268-.1,1.3,1.3,0,0,1,.309-.035,1.145,1.145,0,0,1,.465.088.93.93,0,0,1,.338.249,1.074,1.074,0,0,1,.207.387,1.684,1.684,0,0,1,.069.5V.23H109.7V-1.818a.767.767,0,0,0-.15-.5.56.56,0,0,0-.456-.18.877.877,0,0,0-.421.1,1.445,1.445,0,0,0-.364.284V.23h-.678V-2.989h.41a.167.167,0,0,1,.177.129Zm4.828.158a.169.169,0,0,1-.057.063.151.151,0,0,1-.079.019.254.254,0,0,1-.117-.033q-.063-.033-.148-.074a1.279,1.279,0,0,0-.2-.074.981.981,0,0,0-.27-.033.814.814,0,0,0-.229.03.515.515,0,0,0-.174.085.385.385,0,0,0-.109.129.345.345,0,0,0-.038.159.27.27,0,0,0,.069.189.6.6,0,0,0,.183.131,1.775,1.775,0,0,0,.259.1q.145.044.3.095a2.992,2.992,0,0,1,.3.117,1.112,1.112,0,0,1,.259.163.74.74,0,0,1,.183.233.731.731,0,0,1,.069.333,1.059,1.059,0,0,1-.082.42.942.942,0,0,1-.24.334,1.1,1.1,0,0,1-.393.221,1.689,1.689,0,0,1-.538.079,1.713,1.713,0,0,1-.323-.03,1.86,1.86,0,0,1-.3-.082,1.58,1.58,0,0,1-.262-.125,1.379,1.379,0,0,1-.216-.158l.158-.259a.219.219,0,0,1,.071-.074.2.2,0,0,1,.106-.027.236.236,0,0,1,.131.043q.065.043.151.093a1.2,1.2,0,0,0,.21.093.946.946,0,0,0,.306.043.842.842,0,0,0,.262-.036.525.525,0,0,0,.183-.1.4.4,0,0,0,.107-.144.43.43,0,0,0,.035-.172.294.294,0,0,0-.069-.2.588.588,0,0,0-.185-.136,1.7,1.7,0,0,0-.262-.1q-.147-.044-.3-.095a3.126,3.126,0,0,1-.3-.117,1.026,1.026,0,0,1-.262-.169.771.771,0,0,1-.185-.249.833.833,0,0,1-.069-.358.89.89,0,0,1,.077-.366.888.888,0,0,1,.227-.306,1.1,1.1,0,0,1,.369-.21,1.521,1.521,0,0,1,.506-.077,1.6,1.6,0,0,1,.59.1,1.283,1.283,0,0,1,.445.284Z" transform="translate(105.487 76)" fill="#2c2c2c"/>
  </g>
</svg>
